<svg xmlns="http://www.w3.org/2000/svg" width="24" height="23.288" viewBox="0 0 24 23.288"><defs><style>.a{fill:#fff;}</style></defs><path class="a" d="M4.44,18.83a.47.47,0,0,1-.364.559.461.461,0,0,1-.546-.364.479.479,0,0,1,.35-.559A.473.473,0,0,1,4.44,18.83Zm6.509,3.248a.673.673,0,0,0-.168.91.648.648,0,0,0,.91.168.658.658,0,0,0,.155-.91.633.633,0,0,0-.9-.168ZM7.037,1.05a.535.535,0,0,0,.4-.637A.508.508,0,0,0,6.819,0,.548.548,0,0,0,6.4.636a.523.523,0,0,0,.632.414ZM1.5,10.279a.993.993,0,0,0-1.392.273,1.018,1.018,0,0,0,.259,1.405A.982.982,0,0,0,1.761,11.7,1.033,1.033,0,0,0,1.5,10.279ZM13.873,2.506a1.013,1.013,0,0,0,.35-1.378.986.986,0,0,0-1.365-.35,1.023,1.023,0,0,0-.337,1.392.975.975,0,0,0,1.351.337ZM5.181,5.144a.787.787,0,0,0,.2-1.078.755.755,0,0,0-1.051-.2.787.787,0,0,0-.2,1.078A.746.746,0,0,0,5.181,5.144Zm16.934,7.1a.644.644,0,0,0-.482.769.619.619,0,0,0,.741.482.626.626,0,0,0,.482-.755A.641.641,0,0,0,22.115,12.239Zm1.806-2.583a.461.461,0,0,0-.546-.364.479.479,0,1,0,.546.364ZM20.268,6.3a.871.871,0,0,0-.223,1.2.852.852,0,0,0,1.183.223.88.88,0,0,0,.209-1.2A.823.823,0,0,0,20.268,6.3Zm-.287,6.34a4.4,4.4,0,0,1-1.2,5.872,4.213,4.213,0,0,1-2.588.778,2.927,2.927,0,0,1-4.78,1.483,1.42,1.42,0,0,0-.168.132,3.875,3.875,0,0,1-5.431-1.014,4.007,4.007,0,0,1-.687-2.133,3.71,3.71,0,0,1-1.869-6.354A3.469,3.469,0,0,1,5.691,6.181c1.142-3.011,4.894-4.439,7.441-2.465a4.5,4.5,0,0,1,5.954,4.6A2.536,2.536,0,0,1,19.982,12.644ZM16.8,16.024c-.141-.937-1.86-.209-1.96-1.233-.141-1.455,1.988-4.6,1.819-5.822a1.408,1.408,0,0,0-1.519-1.337,1.472,1.472,0,0,0-.973.209c-.132.077-.3.223-.532-.014a1.654,1.654,0,0,0-.882-.587,1.27,1.27,0,0,0-1.21.441c-.155.132-.546.587-.91.414-.155-.077-.7-.35-1.092-.519a1.966,1.966,0,0,0-2.211.91,49.684,49.684,0,0,0-1.9,5.69A1.6,1.6,0,0,0,7.11,16.319a1.264,1.264,0,0,0,1.155-.791c.182-.337,1.9-4.9,2.029-5.121a.565.565,0,0,1,.664-.232.625.625,0,0,1,.273.687c-.05.441-1.274,3.225-1.314,3.534-.155,1.042,1.224,1.21,1.756.182.168-.323,2.079-4.212,2.247-4.471.2-.287.337-.378.532-.364.141,0,.378.041.323.5-.064.428-1.6,3.288-1.769,3.989a2.1,2.1,0,0,0,1.133,2.3c.519.259,2.843.714,2.661-.5Zm.259,4.2A1.085,1.085,0,0,0,16.8,21.7a1.045,1.045,0,0,0,1.455.273,1.08,1.08,0,0,0,.273-1.483A1.047,1.047,0,0,0,17.057,20.222Z" transform="translate(0.066 0.015)"/></svg>