<svg xmlns="http://www.w3.org/2000/svg" width="24" height="24" viewBox="0 0 24 24"><defs><style>.a{fill:#fff;}</style></defs><path class="a" d="M5.042,47.166a2.521,2.521,0,1,1-2.521-2.521H5.042Zm1.271,0a2.521,2.521,0,1,1,5.042,0v6.313a2.521,2.521,0,1,1-5.042,0V47.166ZM8.834,37.042a2.521,2.521,0,1,1,2.521-2.521v2.521Zm0,1.271a2.521,2.521,0,1,1,0,5.042H2.521a2.521,2.521,0,0,1,0-5.042Zm10.124,2.521a2.521,2.521,0,1,1,2.521,2.521H18.958V40.834Zm-1.271,0a2.521,2.521,0,1,1-5.042,0V34.521a2.521,2.521,0,0,1,5.042,0v6.313ZM15.166,50.958a2.521,2.521,0,1,1-2.521,2.521V50.958Zm0-1.271a2.521,2.521,0,0,1,0-5.042h6.313a2.521,2.521,0,0,1,0,5.042Z" transform="translate(0 -32)"/></svg>